<?xml version="1.0" encoding="UTF-8"?> <svg xmlns="http://www.w3.org/2000/svg" width="60" height="60" viewBox="0 0 60 60" fill="none"> <circle cx="30" cy="30" r="30" fill="white"></circle> <path d="M43.1729 18.2799L37.3329 16.3333C37.3329 17.7477 36.771 19.1043 35.7708 20.1045C34.7706 21.1047 33.4141 21.6666 31.9996 21.6666C30.5851 21.6666 29.2285 21.1047 28.2283 20.1045C27.2281 19.1043 26.6662 17.7477 26.6662 16.3333L20.8262 18.2799C20.2227 18.481 19.711 18.8911 19.3834 19.4364C19.0557 19.9816 18.9338 20.626 19.0396 21.2533L19.8129 25.8799C19.8637 26.1931 20.0245 26.478 20.2664 26.6833C20.5084 26.8886 20.8156 27.0008 21.1329 26.9999H23.9996V40.3333C23.9996 41.7999 25.1996 42.9999 26.6662 42.9999H37.3329C38.0401 42.9999 38.7184 42.719 39.2185 42.2189C39.7186 41.7188 39.9996 41.0405 39.9996 40.3333V26.9999H42.8662C43.1835 27.0008 43.4908 26.8886 43.7327 26.6833C43.9747 26.478 44.1355 26.1931 44.1862 25.8799L44.9596 21.2533C45.0653 20.626 44.9434 19.9816 44.6158 19.4364C44.2881 18.8911 43.7764 18.481 43.1729 18.2799Z" stroke="#1E1E21" stroke-width="1.5" stroke-linecap="round" stroke-linejoin="round"></path> <path d="M37.8399 20.9467L31.9999 19C31.9999 20.4145 31.438 21.771 30.4378 22.7712C29.4376 23.7714 28.081 24.3333 26.6666 24.3333C25.2521 24.3333 23.8955 23.7714 22.8953 22.7712C21.8951 21.771 21.3332 20.4145 21.3332 19L15.4932 20.9467C14.8897 21.1477 14.378 21.5579 14.0504 22.1031C13.7227 22.6484 13.6008 23.2928 13.7066 23.92L14.4799 28.5467C14.5307 28.8599 14.6915 29.1447 14.9334 29.35C15.1754 29.5553 15.4826 29.6676 15.7999 29.6667H18.6666V43C18.6666 44.4667 19.8666 45.6667 21.3332 45.6667H31.9999C32.7071 45.6667 33.3854 45.3857 33.8855 44.8856C34.3856 44.3855 34.6666 43.7072 34.6666 43V29.6667H37.5332C37.8505 29.6676 38.1578 29.5553 38.3997 29.35C38.6417 29.1447 38.8025 28.8599 38.8532 28.5467L39.6266 23.92C39.7323 23.2928 39.6104 22.6484 39.2828 22.1031C38.9551 21.5579 38.4434 21.1477 37.8399 20.9467Z" fill="white" stroke="#1E1E21" stroke-width="1.5" stroke-linecap="round" stroke-linejoin="round"></path> </svg> 