<?xml version="1.0" encoding="UTF-8"?> <svg xmlns="http://www.w3.org/2000/svg" width="60" height="60" viewBox="0 0 60 60" fill="none"> <circle cx="30" cy="30" r="30" fill="white"></circle> <path d="M41.2268 20.1067C40.5579 19.4355 39.763 18.9029 38.8879 18.5395C38.0127 18.1761 37.0744 17.989 36.1268 17.989C35.1792 17.989 34.2409 18.1761 33.3657 18.5395C32.4905 18.9029 31.6957 19.4355 31.0268 20.1067L30.0001 21.1467L28.9734 20.1067C28.3045 19.4355 27.5097 18.9029 26.6345 18.5395C25.7594 18.1761 24.8211 17.989 23.8734 17.989C22.9258 17.989 21.9875 18.1761 21.1124 18.5395C20.2372 18.9029 19.4424 19.4355 18.7734 20.1067C15.9468 22.9334 15.7734 27.7067 19.3334 31.3334L30.0001 42L40.6668 31.3334C44.2268 27.7067 44.0534 22.9334 41.2268 20.1067Z" stroke="#1E1E21" stroke-width="2" stroke-linecap="round" stroke-linejoin="round"></path> </svg> 