<svg width="32" height="32" viewBox="0 0 32 32" fill="none" xmlns="http://www.w3.org/2000/svg">
<circle cx="16" cy="16" r="16" fill="#1E1E21"/>
<path d="M13.828 13.788C13.1127 14.396 12.8507 15.5047 13.468 16.394C14.0481 17.2281 14.7724 17.9521 15.6067 18.532C16.496 19.1493 17.6047 18.8873 18.2127 18.172L18.2193 18.1753C18.9958 18.5353 19.82 18.7816 20.6667 18.9067V20.6667H20.664C15.348 20.674 11.3273 16.6073 11.3333 11.336V11.3333H13.0933V11.334C13.2187 12.1807 13.4653 13.0047 13.8247 13.7807L13.828 13.7873V13.788ZM20.6667 22H21.3333C21.5102 22 21.6797 21.9298 21.8047 21.8047C21.9298 21.6797 22 21.5101 22 21.3333V18.332C22.0001 18.1721 21.9428 18.0174 21.8384 17.8963C21.734 17.7751 21.5895 17.6955 21.4313 17.672L20.862 17.588C20.1418 17.4811 19.4406 17.2714 18.78 16.9653L18.278 16.7327C18.137 16.6674 17.9777 16.6533 17.8275 16.693C17.6773 16.7327 17.5457 16.8236 17.4553 16.95L17.228 17.268C17.0287 17.5473 16.648 17.632 16.3673 17.4367C15.6636 16.9475 15.0528 16.3368 14.5633 15.6333C14.368 15.352 14.4533 14.9713 14.732 14.7727L15.05 14.546C15.1766 14.4557 15.2676 14.3239 15.3073 14.1736C15.3469 14.0232 15.3328 13.8637 15.2673 13.7227L15.034 13.22C14.7282 12.5593 14.5188 11.8582 14.412 11.138L14.3273 10.5687C14.3038 10.4105 14.2242 10.266 14.1031 10.1616C13.9819 10.0572 13.8273 9.99986 13.6673 10H10.6667C10.4899 10 10.3203 10.0702 10.1953 10.1953C10.0702 10.3203 10 10.4899 10 10.6667V11.334C9.99334 17.3387 14.6067 22.0087 20.666 22H20.6667Z" fill="white"/>
</svg>
