<svg width="32" height="32" viewBox="0 0 32 32" fill="none" xmlns="http://www.w3.org/2000/svg">
<circle cx="16" cy="16" r="16" fill="#1E1E21"/>
<path d="M19.7365 13.1031C20.2004 13.1031 20.5765 12.727 20.5765 12.2631C20.5765 11.7992 20.2004 11.4231 19.7365 11.4231C19.2726 11.4231 18.8965 11.7992 18.8965 12.2631C18.8965 12.727 19.2726 13.1031 19.7365 13.1031Z" fill="white"/>
<path d="M16.0003 12.4055C15.2893 12.4055 14.5944 12.6163 14.0033 13.0113C13.4122 13.4063 12.9514 13.9677 12.6794 14.6245C12.4073 15.2813 12.3361 16.004 12.4748 16.7013C12.6135 17.3985 12.9559 18.039 13.4586 18.5417C13.9613 19.0444 14.6017 19.3868 15.299 19.5254C15.9963 19.6641 16.719 19.593 17.3758 19.3209C18.0326 19.0488 18.594 18.5881 18.989 17.997C19.384 17.4059 19.5948 16.7109 19.5948 16C19.5948 15.0467 19.2161 14.1324 18.542 13.4583C17.8679 12.7842 16.9536 12.4055 16.0003 12.4055ZM16.0003 18.3333C15.5388 18.3333 15.0876 18.1965 14.7039 17.9401C14.3202 17.6837 14.0211 17.3193 13.8445 16.8929C13.6679 16.4666 13.6217 15.9974 13.7118 15.5448C13.8018 15.0922 14.024 14.6764 14.3503 14.3501C14.6767 14.0238 15.0924 13.8016 15.5451 13.7115C15.9977 13.6215 16.4668 13.6677 16.8932 13.8443C17.3196 14.0209 17.684 14.32 17.9404 14.7037C18.1967 15.0874 18.3336 15.5385 18.3336 16C18.3336 16.6189 18.0878 17.2123 17.6502 17.6499C17.2126 18.0875 16.6191 18.3333 16.0003 18.3333Z" fill="white"/>
<path d="M16 10.2612C17.869 10.2612 18.0907 10.2682 18.8286 10.302C19.2724 10.3073 19.712 10.3888 20.1282 10.5429C20.4302 10.6594 20.7045 10.8378 20.9333 11.0667C21.1622 11.2955 21.3406 11.5698 21.4571 11.8718C21.6112 12.288 21.6927 12.7276 21.698 13.1714C21.7318 13.9093 21.7388 14.131 21.7388 16.0006C21.7388 17.8702 21.7318 18.0907 21.698 18.8286C21.6927 19.2724 21.6112 19.712 21.4571 20.1282C21.3406 20.4302 21.1622 20.7045 20.9333 20.9333C20.7045 21.1622 20.4302 21.3406 20.1282 21.4571C19.712 21.6112 19.2724 21.6927 18.8286 21.698C18.0907 21.7318 17.869 21.7388 16 21.7388C14.131 21.7388 13.9093 21.7318 13.1714 21.698C12.7276 21.6927 12.288 21.6112 11.8718 21.4571C11.5698 21.3406 11.2955 21.1622 11.0667 20.9333C10.8378 20.7045 10.6594 20.4302 10.5429 20.1282C10.3888 19.712 10.3073 19.2724 10.302 18.8286C10.2682 18.0907 10.2612 17.869 10.2612 16C10.2612 14.131 10.2682 13.9093 10.302 13.1714C10.3073 12.7276 10.3888 12.288 10.5429 11.8718C10.6594 11.5698 10.8378 11.2955 11.0667 11.0667C11.2955 10.8378 11.5698 10.6594 11.8718 10.5429C12.288 10.3888 12.7276 10.3073 13.1714 10.302C13.9093 10.2682 14.131 10.2612 16 10.2612ZM16 9C14.0989 9 13.8603 9.00817 13.1137 9.042C12.5331 9.05372 11.9588 9.16378 11.415 9.3675C10.9499 9.54734 10.5276 9.82237 10.175 10.175C9.82237 10.5276 9.54734 10.9499 9.3675 11.415C9.16372 11.9589 9.05366 12.5335 9.042 13.1143C9.00817 13.8609 9 14.0983 9 16C9 17.9017 9.00817 18.1397 9.042 18.8863C9.05372 19.4669 9.16378 20.0412 9.3675 20.585C9.54734 21.0501 9.82237 21.4724 10.175 21.825C10.5276 22.1776 10.9499 22.4527 11.415 22.6325C11.9589 22.8363 12.5335 22.9463 13.1143 22.958C13.8609 22.9918 14.0989 23 16 23C17.9011 23 18.1397 22.9918 18.8863 22.958C19.4671 22.9463 20.0416 22.8363 20.5856 22.6325C21.0507 22.4527 21.473 22.1776 21.8256 21.825C22.1782 21.4724 22.4532 21.0501 22.6331 20.585C22.8367 20.041 22.9465 19.4665 22.958 18.8857C22.9918 18.1391 23 17.9017 23 16C23 14.0983 22.9918 13.8603 22.958 13.1137C22.9463 12.5331 22.8362 11.9588 22.6325 11.415C22.4527 10.9499 22.1776 10.5276 21.825 10.175C21.4724 9.82237 21.0501 9.54734 20.585 9.3675C20.041 9.16392 19.4665 9.05405 18.8857 9.04258C18.1391 9.00758 17.9017 9 16 9Z" fill="white"/>
</svg>
