<svg width="148" height="56" viewBox="0 0 148 56" fill="none" xmlns="http://www.w3.org/2000/svg">
<rect y="15.5" width="24" height="3" fill="#292A2D"/>
<path d="M55.72 21.792C54.04 23.472 51.984 24.312 49.552 24.312C47.12 24.312 45.056 23.472 43.36 21.792C41.68 20.096 40.84 18.032 40.84 15.6C40.84 13.168 41.68 11.112 43.36 9.432C45.056 7.736 47.12 6.888 49.552 6.888C51.984 6.888 54.04 7.736 55.72 9.432C57.416 11.112 58.264 13.168 58.264 15.6C58.264 18.032 57.416 20.096 55.72 21.792ZM45.304 19.92C46.472 21.056 47.888 21.624 49.552 21.624C51.232 21.624 52.64 21.056 53.776 19.92C54.928 18.768 55.504 17.328 55.504 15.6C55.504 13.872 54.928 12.44 53.776 11.304C52.64 10.152 51.232 9.576 49.552 9.576C47.872 9.576 46.456 10.152 45.304 11.304C44.168 12.44 43.6 13.872 43.6 15.6C43.6 17.312 44.168 18.752 45.304 19.92ZM74.8216 21.792C73.1416 23.472 71.0856 24.312 68.6536 24.312C66.2216 24.312 64.1576 23.472 62.4616 21.792C60.7816 20.096 59.9416 18.032 59.9416 15.6C59.9416 13.168 60.7816 11.112 62.4616 9.432C64.1576 7.736 66.2216 6.888 68.6536 6.888C71.0856 6.888 73.1416 7.736 74.8216 9.432C76.5176 11.112 77.3656 13.168 77.3656 15.6C77.3656 18.032 76.5176 20.096 74.8216 21.792ZM64.4056 19.92C65.5736 21.056 66.9896 21.624 68.6536 21.624C70.3336 21.624 71.7416 21.056 72.8776 19.92C74.0296 18.768 74.6056 17.328 74.6056 15.6C74.6056 13.872 74.0296 12.44 72.8776 11.304C71.7416 10.152 70.3336 9.576 68.6536 9.576C66.9736 9.576 65.5576 10.152 64.4056 11.304C63.2696 12.44 62.7016 13.872 62.7016 15.6C62.7016 17.312 63.2696 18.752 64.4056 19.92ZM93.1703 24H90.1943L89.0183 20.616H81.8663L80.6903 24H77.6903L83.7863 7.2H87.0983L93.1703 24ZM85.4423 10.44L82.7783 18.024H88.1063L85.4423 10.44ZM100.617 15.384L107.649 24H104.361L97.7369 16.008V24H94.9769V7.2H97.7369V14.736L104.121 7.2H107.409L100.617 15.384Z" fill="#292A2D"/>
<rect x="124" y="15.5" width="24" height="3" fill="#292A2D"/>
<path d="M38.8474 47.992C38.0261 48.792 37.0341 49.192 35.8714 49.192C34.6874 49.192 33.6901 48.792 32.8794 47.992C32.0688 47.1813 31.6634 46.184 31.6634 45C31.6634 43.816 32.0688 42.824 32.8794 42.024C33.6901 41.2133 34.6874 40.808 35.8714 40.808C37.0448 40.808 38.0368 41.2133 38.8474 42.024C39.6688 42.824 40.0794 43.816 40.0794 45C40.0794 46.1733 39.6688 47.1707 38.8474 47.992ZM33.6314 47.256C34.2394 47.864 34.9861 48.168 35.8714 48.168C36.7568 48.168 37.5034 47.864 38.1114 47.256C38.7194 46.6267 39.0234 45.8747 39.0234 45C39.0234 44.1147 38.7194 43.368 38.1114 42.76C37.5034 42.1413 36.7568 41.832 35.8714 41.832C34.9861 41.832 34.2394 42.1413 33.6314 42.76C33.0234 43.368 32.7194 44.1147 32.7194 45C32.7194 45.8747 33.0234 46.6267 33.6314 47.256ZM45.5906 40.808C46.5506 40.808 47.3132 41.1067 47.8786 41.704C48.4439 42.2907 48.7266 43.0853 48.7266 44.088V49H47.6706V44.088C47.6706 43.3733 47.4786 42.8187 47.0946 42.424C46.7212 42.0293 46.1879 41.832 45.4946 41.832C44.6946 41.832 44.0599 42.0827 43.5906 42.584C43.1319 43.0853 42.9026 43.8267 42.9026 44.808V49H41.8466V41H42.9026V42.248C43.4999 41.288 44.3959 40.808 45.5906 40.808ZM54.4644 40.808C55.6591 40.808 56.6138 41.2293 57.3284 42.072C58.0644 42.904 58.4324 43.8907 58.4324 45.032C58.4324 45.0853 58.4218 45.2507 58.4004 45.528H51.3764C51.4831 46.328 51.8244 46.968 52.4004 47.448C52.9764 47.928 53.6964 48.168 54.5604 48.168C55.7764 48.168 56.6351 47.7147 57.1364 46.808L58.0644 47.352C57.7124 47.928 57.2271 48.3813 56.6084 48.712C56.0004 49.032 55.3124 49.192 54.5444 49.192C53.2858 49.192 52.2618 48.7973 51.4724 48.008C50.6831 47.2187 50.2884 46.216 50.2884 45C50.2884 43.7947 50.6778 42.7973 51.4564 42.008C52.2351 41.208 53.2378 40.808 54.4644 40.808ZM54.4644 41.832C53.6324 41.832 52.9338 42.0773 52.3684 42.568C51.8138 43.0587 51.4831 43.704 51.3764 44.504H57.3444C57.2271 43.6507 56.9018 42.9947 56.3684 42.536C55.8138 42.0667 55.1791 41.832 54.4644 41.832ZM70.8162 47.992C69.9949 48.792 69.0029 49.192 67.8402 49.192C66.6562 49.192 65.6589 48.792 64.8482 47.992C64.0375 47.1813 63.6322 46.184 63.6322 45C63.6322 43.816 64.0375 42.824 64.8482 42.024C65.6589 41.2133 66.6562 40.808 67.8402 40.808C69.0135 40.808 70.0055 41.2133 70.8162 42.024C71.6375 42.824 72.0482 43.816 72.0482 45C72.0482 46.1733 71.6375 47.1707 70.8162 47.992ZM65.6002 47.256C66.2082 47.864 66.9549 48.168 67.8402 48.168C68.7255 48.168 69.4722 47.864 70.0802 47.256C70.6882 46.6267 70.9922 45.8747 70.9922 45C70.9922 44.1147 70.6882 43.368 70.0802 42.76C69.4722 42.1413 68.7255 41.832 67.8402 41.832C66.9549 41.832 66.2082 42.1413 65.6002 42.76C64.9922 43.368 64.6882 44.1147 64.6882 45C64.6882 45.8747 64.9922 46.6267 65.6002 47.256ZM77.5028 37.608V38.632C76.7241 38.568 76.1428 38.7013 75.7588 39.032C75.3855 39.3627 75.1988 39.912 75.1988 40.68V41H77.5028V42.024H75.1988V49H74.1428V42.024H72.7828V41H74.1428V40.68C74.1428 39.624 74.4308 38.8293 75.0068 38.296C75.5935 37.7627 76.4255 37.5333 77.5028 37.608ZM89.5078 42.568V41H90.5638V49H89.5078V47.432C88.7718 48.6053 87.6945 49.192 86.2758 49.192C85.1345 49.192 84.1585 48.7867 83.3478 47.976C82.5478 47.1653 82.1478 46.1733 82.1478 45C82.1478 43.8267 82.5478 42.8347 83.3478 42.024C84.1585 41.2133 85.1345 40.808 86.2758 40.808C87.6945 40.808 88.7718 41.3947 89.5078 42.568ZM84.1158 47.256C84.7238 47.864 85.4705 48.168 86.3558 48.168C87.2411 48.168 87.9878 47.864 88.5958 47.256C89.2038 46.6267 89.5078 45.8747 89.5078 45C89.5078 44.1147 89.2038 43.368 88.5958 42.76C87.9878 42.1413 87.2411 41.832 86.3558 41.832C85.4705 41.832 84.7238 42.1413 84.1158 42.76C83.5078 43.368 83.2038 44.1147 83.2038 45C83.2038 45.8747 83.5078 46.6267 84.1158 47.256ZM98.9757 44.84L103.264 49H101.856L97.8557 45.144V49H96.7997V37.8H97.8557V44.536L101.664 41H103.104L98.9757 44.84ZM106.002 38.536C106.002 38.7493 105.927 38.9307 105.778 39.08C105.629 39.2293 105.447 39.304 105.234 39.304C105.021 39.304 104.839 39.2293 104.69 39.08C104.541 38.9307 104.466 38.7493 104.466 38.536C104.466 38.3227 104.541 38.1413 104.69 37.992C104.839 37.8427 105.021 37.768 105.234 37.768C105.447 37.768 105.629 37.8427 105.778 37.992C105.927 38.1413 106.002 38.3227 106.002 38.536ZM105.762 49H104.706V41H105.762V49ZM111.747 40.808C112.707 40.808 113.469 41.1067 114.035 41.704C114.6 42.2907 114.883 43.0853 114.883 44.088V49H113.827V44.088C113.827 43.3733 113.635 42.8187 113.251 42.424C112.877 42.0293 112.344 41.832 111.651 41.832C110.851 41.832 110.216 42.0827 109.747 42.584C109.288 43.0853 109.059 43.8267 109.059 44.808V49H108.003V41H109.059V42.248C109.656 41.288 110.552 40.808 111.747 40.808ZM123.805 42.568V37.8H124.861V49H123.805V47.432C123.069 48.6053 121.991 49.192 120.573 49.192C119.431 49.192 118.455 48.7867 117.645 47.976C116.845 47.1653 116.445 46.1733 116.445 45C116.445 43.8267 116.845 42.8347 117.645 42.024C118.455 41.2133 119.431 40.808 120.573 40.808C121.991 40.808 123.069 41.3947 123.805 42.568ZM118.413 47.256C119.021 47.864 119.767 48.168 120.653 48.168C121.538 48.168 122.285 47.864 122.893 47.256C123.501 46.6267 123.805 45.8747 123.805 45C123.805 44.1147 123.501 43.368 122.893 42.76C122.285 42.1413 121.538 41.832 120.653 41.832C119.767 41.832 119.021 42.1413 118.413 42.76C117.805 43.368 117.501 44.1147 117.501 45C117.501 45.8747 117.805 46.6267 118.413 47.256Z" fill="#818BA3"/>
</svg>
