<svg width="60" height="60" viewBox="0 0 60 60" fill="none" xmlns="http://www.w3.org/2000/svg">
<circle cx="30" cy="30" r="30" fill="white"/>
<path d="M35.3335 23.3333C35.3335 22.9797 35.474 22.6406 35.724 22.3905C35.9741 22.1405 36.3132 22 36.6668 22C37.0205 22 37.3596 22.1405 37.6096 22.3905C37.8597 22.6406 38.0002 22.9797 38.0002 23.3333C38.0002 23.687 37.8597 24.0261 37.6096 24.2761C37.3596 24.5262 37.0205 24.6667 36.6668 24.6667C36.3132 24.6667 35.9741 24.5262 35.724 24.2761C35.474 24.0261 35.3335 23.687 35.3335 23.3333Z" fill="black"/>
<path fill-rule="evenodd" clip-rule="evenodd" d="M29.9998 23.6667C28.3201 23.6667 26.7092 24.334 25.5215 25.5217C24.3338 26.7095 23.6665 28.3204 23.6665 30.0001C23.6665 31.6798 24.3338 33.2907 25.5215 34.4784C26.7092 35.6662 28.3201 36.3334 29.9998 36.3334C31.6795 36.3334 33.2905 35.6662 34.4782 34.4784C35.6659 33.2907 36.3332 31.6798 36.3332 30.0001C36.3332 28.3204 35.6659 26.7095 34.4782 25.5217C33.2905 24.334 31.6795 23.6667 29.9998 23.6667ZM25.6665 30.0001C25.6665 28.8508 26.1231 27.7486 26.9357 26.936C27.7484 26.1233 28.8506 25.6667 29.9998 25.6667C31.1491 25.6667 32.2513 26.1233 33.064 26.936C33.8766 27.7486 34.3332 28.8508 34.3332 30.0001C34.3332 31.1494 33.8766 32.2516 33.064 33.0642C32.2513 33.8769 31.1491 34.3334 29.9998 34.3334C28.8506 34.3334 27.7484 33.8769 26.9357 33.0642C26.1231 32.2516 25.6665 31.1494 25.6665 30.0001Z" fill="black"/>
<path fill-rule="evenodd" clip-rule="evenodd" d="M37.0106 17.7773C32.3511 17.2608 27.6488 17.2608 22.9892 17.7773C20.3066 18.0773 18.1399 20.1906 17.8252 22.8866C17.2724 27.6127 17.2724 32.3872 17.8252 37.1133C18.1399 39.8093 20.3052 41.9226 22.9892 42.2226C27.6488 42.7386 32.351 42.7386 37.0106 42.2226C39.6932 41.9226 41.8599 39.8093 42.1746 37.1133C42.7275 32.3872 42.7275 27.6127 42.1746 22.8866C41.8599 20.1906 39.6946 18.0773 37.0106 17.7773ZM23.2106 19.764C27.723 19.2638 32.2768 19.2638 36.7892 19.764C38.5626 19.964 39.9826 21.3626 40.1892 23.12C40.7238 27.6911 40.7238 32.3089 40.1892 36.88C40.0823 37.74 39.6886 38.5389 39.0717 39.1476C38.4548 39.7563 37.6507 40.1393 36.7892 40.2346C32.2768 40.7348 27.723 40.7348 23.2106 40.2346C22.3492 40.1393 21.545 39.7563 20.9281 39.1476C20.3112 38.5389 19.9175 37.74 19.8106 36.88C19.276 32.3089 19.276 27.6911 19.8106 23.12C19.9175 22.2599 20.3112 21.461 20.9281 20.8523C21.545 20.2436 22.3492 19.8593 23.2106 19.764Z" fill="black"/>
</svg>
