<svg width="60" height="60" viewBox="0 0 60 60" fill="none" xmlns="http://www.w3.org/2000/svg">
<circle cx="30" cy="30" r="30" fill="white"/>
<path d="M37.7333 39.6L35.3333 28.6667L40 24C42 22 42.6667 19.3333 42 18C40.6667 17.3333 38 18 36 20L31.3333 24.6667L20.4 22.2667C19.7333 22.1333 19.2 22.4 18.9333 22.9333L18.5333 23.6C18.2667 24.2667 18.4 24.9333 18.9333 25.3333L26 30L23.3333 34H19.3333L18 35.3333L22 38L24.6667 42L26 40.6667V36.6667L30 34L34.6667 41.0667C35.0667 41.6 35.7333 41.7333 36.4 41.4667L37.0667 41.2C37.6 40.8 37.8667 40.2667 37.7333 39.6Z" stroke="#1E1E21" stroke-width="1.5" stroke-linecap="round" stroke-linejoin="round"/>
</svg>
