<svg width="51" height="73" viewBox="0 0 51 73" fill="none" xmlns="http://www.w3.org/2000/svg">
<path d="M0 21.5C7.29632 18.7639 12.295 11.9851 12.7526 4.20611L13 0L13.2474 4.20611C13.705 11.9851 18.7037 18.7639 26 21.5C18.7037 24.2361 13.705 31.0149 13.2474 38.7939L13 43L12.7526 38.7939C12.295 31.0149 7.29632 24.2361 0 21.5Z" fill="#C1F83C"/>
<path d="M37 66.5574C35.8721 59.9263 31.4988 54.2576 25.3172 51.5C31.4989 48.7424 35.8721 43.0738 37 36.4426C38.1279 43.0738 42.5012 48.7424 48.6828 51.5C42.5012 54.2576 38.1279 59.9263 37 66.5574Z" stroke="#1E1E21"/>
<line x1="50.3778" y1="35.3275" x2="24.3778" y2="65.3275" stroke="#1E1E21"/>
</svg>
