<svg width="50" height="73" viewBox="0 0 50 73" fill="none" xmlns="http://www.w3.org/2000/svg">
<path d="M50 21.5C42.7037 18.7639 37.705 11.9851 37.2474 4.20611L37 0L36.7526 4.20611C36.295 11.9851 31.2963 18.7639 24 21.5C31.2963 24.2361 36.295 31.0149 36.7526 38.7939L37 43L37.2474 38.7939C37.705 31.0149 42.7037 24.2361 50 21.5Z" fill="#1E1E21"/>
<path d="M13 66.5574C14.1279 59.9263 18.5012 54.2576 24.6828 51.5C18.5011 48.7424 14.1279 43.0738 13 36.4426C11.8721 43.0738 7.49885 48.7424 1.31721 51.5C7.49885 54.2576 11.8721 59.9263 13 66.5574Z" stroke="#6D7381"/>
<line y1="-0.5" x2="39.6989" y2="-0.5" transform="matrix(0.654931 0.755689 0.755689 -0.654931 12 21)" stroke="#6D7381"/>
</svg>
